<?xml version="1.0" standalone="no"?>
<!DOCTYPE svg PUBLIC "-//W3C//DTD SVG 20010904//EN"
 "http://www.w3.org/TR/2001/REC-SVG-20010904/DTD/svg10.dtd">
<svg version="1.0" xmlns="http://www.w3.org/2000/svg"
 width="260.000000pt" height="260.000000pt" viewBox="0 0 260.000000 260.000000"
 preserveAspectRatio="xMidYMid meet">
<metadata>
Created by potrace 1.11, written by Peter Selinger 2001-2013
</metadata>
<g transform="translate(0.000000,260.000000) scale(0.100000,-0.100000)"
fill="#000000" stroke="none">
<path d="M537 2585 c3 -9 10 -14 16 -12 17 5 44 -28 43 -54 -1 -33 18 -36 22
-4 2 18 8 25 17 21 22 -8 27 10 7 26 -18 16 -76 38 -98 38 -8 0 -11 -6 -7 -15z"/>
<path d="M835 2578 c1 -12 6 -23 12 -25 11 -4 6 -40 -8 -59 -6 -7 1 -9 21 -6
26 4 30 1 30 -21 0 -33 45 -44 68 -16 18 20 61 16 75 -7 4 -7 14 -11 22 -8 8
4 12 10 9 15 -3 5 -9 7 -14 4 -5 -3 -2 8 6 25 9 16 20 32 25 36 13 8 -8 34
-27 34 -8 0 -14 4 -14 9 0 5 15 5 36 1 20 -5 42 -6 49 -4 7 3 16 1 20 -5 3 -6
11 -11 16 -11 6 0 7 5 4 10 -3 6 1 13 9 16 9 3 16 12 16 20 0 11 -26 14 -135
14 -119 0 -135 -2 -135 -17 0 -15 -1 -15 -18 0 -10 10 -30 17 -44 17 -19 0
-24 -5 -23 -22z m125 -8 c0 -5 -7 -7 -15 -4 -8 4 -15 8 -15 10 0 2 7 4 15 4 8
0 15 -4 15 -10z"/>
<path d="M1270 2586 c0 -8 7 -21 15 -29 8 -8 17 -45 21 -81 4 -43 11 -66 20
-66 7 0 15 -14 19 -31 4 -17 9 -28 12 -25 3 2 14 -4 26 -15 11 -10 31 -19 44
-19 14 0 23 -6 23 -15 0 -17 12 -19 26 -5 8 8 15 6 24 -5 7 -8 25 -15 40 -15
21 0 30 7 40 29 6 16 18 32 26 35 16 6 10 50 -9 74 -7 9 -7 16 1 24 7 7 18 3
37 -16 14 -14 30 -26 34 -26 16 0 19 -39 5 -51 -18 -15 -9 -26 8 -12 17 13 78
22 78 11 0 -4 -4 -8 -9 -8 -14 0 -20 -37 -8 -49 6 -6 22 -11 36 -11 l26 -1
-27 -22 c-30 -24 -37 -40 -14 -31 8 3 17 1 21 -5 4 -8 12 -8 26 -1 23 13 25
30 4 30 -8 0 -15 -4 -15 -10 0 -5 -5 -10 -11 -10 -8 0 -8 5 1 15 7 8 21 15 32
15 10 0 16 5 13 10 -3 6 2 13 12 16 23 9 110 100 118 124 3 10 1 21 -5 25 -17
10 -12 38 6 31 8 -3 12 -2 9 4 -11 18 26 23 43 6 14 -14 15 -19 3 -38 -30 -48
-49 -86 -45 -90 2 -3 -16 -25 -39 -51 -33 -35 -47 -43 -55 -35 -15 15 -17 -9
-3 -31 7 -11 19 -10 67 10 63 25 75 35 68 54 -3 7 6 19 20 29 32 20 36 20 36
-1 0 -16 2 -16 11 -3 7 11 8 4 3 -25 -7 -36 -6 -39 9 -26 10 7 17 19 17 26 0
18 27 26 33 10 8 -20 83 -15 80 5 -2 9 7 22 19 30 12 8 31 24 42 35 12 11 28
20 36 20 8 0 20 3 25 7 6 3 22 5 37 3 24 -3 26 -1 18 15 -5 10 -15 20 -22 22
-7 3 15 3 49 0 l62 -4 7 36 c4 26 14 41 35 51 37 20 63 19 55 0 -3 -8 -1 -15
4 -15 6 0 10 20 10 45 0 43 -12 60 -23 31 -6 -14 -53 -11 -63 5 -3 5 -278 9
-625 9 -530 0 -619 -2 -619 -14z m1114 -87 c-3 -5 -10 -7 -15 -3 -5 3 -7 10
-3 15 3 5 10 7 15 3 5 -3 7 -10 3 -15z m-98 -78 c-25 -49 -50 -71 -80 -71 -11
0 -9 7 9 26 29 31 31 44 10 44 -21 0 -18 11 9 38 22 21 25 21 34 6 9 -15 11
-15 22 7 25 46 21 0 -4 -50z m-379 2 c-9 -9 -19 -14 -23 -11 -10 10 6 28 24
28 15 0 15 -1 -1 -17z m-492 -13 c3 -5 -1 -10 -9 -10 -9 0 -16 5 -16 10 0 6 4
10 9 10 6 0 13 -4 16 -10z m65 -4 c0 -3 -4 -8 -10 -11 -5 -3 -10 -1 -10 4 0 6
5 11 10 11 6 0 10 -2 10 -4z m-40 -26 c0 -5 -9 -10 -20 -10 -11 0 -20 5 -20
10 0 6 9 10 20 10 11 0 20 -4 20 -10z m357 -7 c-9 -9 -20 -13 -24 -9 -4 4 -1
11 7 16 25 16 35 11 17 -7z m10 -67 c-5 -14 -49 -15 -54 -1 -1 6 11 10 27 11
19 1 29 -3 27 -10z m133 -46 c0 -5 -4 -10 -10 -10 -5 0 -10 5 -10 10 0 6 5 10
10 10 6 0 10 -4 10 -10z"/>
<path d="M710 2526 c0 -9 -5 -14 -10 -11 -6 4 -2 -9 7 -27 10 -19 25 -35 35
-35 19 -2 25 22 8 32 -6 4 -8 10 -5 14 2 5 -4 16 -15 26 -19 17 -20 17 -20 1z"/>
<path d="M745 2530 c3 -5 8 -10 11 -10 2 0 4 5 4 10 0 6 -5 10 -11 10 -5 0 -7
-4 -4 -10z"/>
<path d="M110 2394 c0 -10 42 -45 47 -40 3 2 -5 14 -16 25 -21 21 -31 26 -31
15z"/>
<path d="M661 2374 c0 -11 3 -14 6 -6 3 7 2 16 -1 19 -3 4 -6 -2 -5 -13z"/>
<path d="M700 2230 c0 -5 5 -10 11 -10 5 0 7 5 4 10 -3 6 -8 10 -11 10 -2 0
-4 -4 -4 -10z"/>
<path d="M0 1535 c0 -183 4 -285 10 -285 6 0 10 8 10 18 1 16 2 16 14 -1 21
-28 90 -20 94 11 3 21 -5 26 -34 23 -7 -1 -14 8 -17 20 -4 15 -2 19 9 15 9 -3
22 1 30 9 9 8 29 15 45 15 26 0 29 -3 29 -30 0 -20 -5 -30 -15 -30 -12 0 -9
-7 9 -27 20 -22 33 -27 66 -25 22 2 40 -2 40 -7 0 -7 -46 -10 -122 -10 -68 1
-133 0 -145 0 l-23 -1 0 -615 0 -615 1300 0 1300 0 0 736 0 737 -113 -6 c-61
-4 -124 -9 -139 -13 -22 -5 -28 -3 -28 10 0 9 6 16 13 16 8 0 7 4 -3 10 -8 5
-30 10 -47 10 -18 0 -50 6 -70 14 -49 18 -163 29 -177 17 -7 -6 -27 -13 -46
-16 -19 -3 -39 -12 -45 -19 -24 -30 -420 -70 -482 -48 -18 6 -52 6 -93 0 -36
-5 -77 -11 -92 -13 -15 -2 -40 0 -55 5 -31 9 -30 11 7 15 14 2 45 8 70 13 l45
10 -40 0 c-22 -1 -55 2 -74 6 -24 6 -31 5 -27 -3 4 -6 3 -11 -2 -11 -5 0 -12
9 -15 20 -3 13 -11 18 -20 14 -8 -3 -18 -1 -22 5 -3 6 -20 11 -36 11 -18 0
-28 -4 -24 -10 10 -15 0 -12 -24 9 -12 11 -21 22 -19 24 2 3 -1 9 -6 14 -5 5
-6 3 -2 -4 12 -21 -9 -15 -30 8 -24 27 -92 62 -104 54 -6 -3 -10 -15 -10 -25
0 -28 -15 -32 -35 -10 -14 15 -21 17 -32 9 -10 -9 -13 -8 -13 5 0 21 -19 20
-36 -1 -8 -11 -13 -13 -14 -5 0 6 -7 12 -15 12 -19 0 -54 22 -123 77 -29 24
-55 43 -58 43 -2 0 -30 -18 -62 -39 -31 -22 -59 -35 -61 -29 -8 22 -40 47 -45
35 -3 -9 -5 -9 -5 1 -1 6 -7 12 -14 12 -8 0 -22 9 -32 20 -10 11 -22 17 -27
14 -5 -3 -14 -2 -21 3 -7 5 -25 10 -41 11 -16 1 -37 9 -47 18 -10 9 -24 14
-31 12 -7 -3 -18 2 -24 11 -10 13 -14 13 -29 1 -14 -11 -18 -11 -25 0 -4 7
-15 10 -23 7 -9 -3 -17 -2 -19 2 -2 4 -15 11 -30 15 l-28 6 0 -285z m2110 -66
c0 -5 -7 -9 -15 -9 -8 0 -15 -5 -15 -10 0 -17 -39 -27 -123 -34 -42 -3 -111
-9 -152 -12 -71 -6 -115 0 -102 12 3 3 52 8 109 11 58 3 116 11 132 19 16 8
35 14 43 14 7 0 13 4 13 8 0 4 14 9 32 10 18 2 34 4 36 6 6 7 42 -6 42 -15z
m-430 -59 c0 -5 -8 -10 -17 -10 -15 0 -16 2 -3 10 19 12 20 12 20 0z m-455
-10 c3 -6 -1 -7 -9 -4 -18 7 -21 14 -7 14 6 0 13 -4 16 -10z m180 -10 c3 -6
-1 -7 -9 -4 -18 7 -21 14 -7 14 6 0 13 -4 16 -10z m232 4 c-3 -3 -12 -4 -19
-1 -8 3 -5 6 6 6 11 1 17 -2 13 -5z m-1103 -39 c3 -9 14 -15 23 -13 12 2 19
-4 21 -19 4 -28 -19 -35 -124 -35 -62 0 -84 -3 -84 -13 0 -14 52 -29 93 -26
15 1 27 -3 27 -8 0 -7 -30 -11 -80 -11 -44 0 -80 3 -80 8 0 4 7 16 15 26 8 11
11 24 7 30 -5 6 -7 17 -6 24 1 6 2 18 4 25 1 6 8 -1 15 -18 l14 -30 1 28 c0
17 5 27 15 27 13 0 20 -18 16 -42 0 -5 3 -8 9 -8 6 0 10 9 10 20 0 15 7 20 30
20 16 0 35 7 42 15 17 19 24 19 32 0z m127 -19 c-14 -36 -22 -33 -9 5 6 16 12
28 14 26 3 -2 0 -16 -5 -31z m70 -8 c2 -20 0 -40 -4 -44 -4 -4 -7 14 -7 41 0
56 7 57 11 3z m-465 16 c7 18 8 18 21 0 12 -16 13 -16 13 -1 0 9 5 17 10 17 6
0 10 -11 10 -24 0 -13 3 -32 6 -41 5 -12 2 -16 -12 -14 -10 2 -29 -2 -41 -9
-19 -11 -23 -10 -23 2 0 10 6 13 18 9 9 -3 14 -3 10 1 -3 4 -14 9 -24 10 -19
3 -26 28 -17 54 6 13 8 13 14 -4 7 -19 7 -19 15 0z m534 -19 c0 -24 -5 -35
-15 -35 -15 0 -22 50 -8 63 15 15 23 5 23 -28z m43 -7 c-3 -15 -9 -25 -14 -22
-11 6 -12 48 -2 58 12 12 22 -9 16 -36z m-793 -4 c0 -13 -4 -24 -10 -24 -5 0
-10 14 -10 31 0 17 4 28 10 24 6 -3 10 -17 10 -31z m842 16 c0 -11 1 -26 2
-32 1 -7 -5 -13 -13 -13 -8 0 -15 13 -16 33 -2 22 2 32 11 32 8 0 15 -9 16
-20z m204 -7 c-10 -10 -19 5 -10 18 6 11 8 11 12 0 2 -7 1 -15 -2 -18z m-123
10 c-7 -2 -13 -13 -13 -23 0 -10 -9 -20 -19 -23 -14 -3 -18 -11 -14 -26 3 -14
1 -21 -9 -21 -13 0 -13 7 -9 65 1 12 39 32 61 33 10 0 11 -1 3 -5z m157 -3 c0
-5 -4 -10 -10 -10 -5 0 -10 5 -10 10 0 6 5 10 10 10 6 0 10 -4 10 -10z m77 -1
c-14 -8 -22 -8 -30 0 -8 8 -3 11 19 11 25 -1 27 -2 11 -11z m-548 -35 c2 -2
-10 -4 -27 -4 -18 0 -32 5 -32 10 0 9 47 4 59 -6z m535 -39 c-7 -18 -38 -22
-147 -18 l-95 3 5 -49 c3 -29 0 -52 -6 -56 -6 -3 -11 -1 -11 5 0 6 -7 19 -16
28 -15 14 -15 17 1 28 9 7 15 16 12 21 -3 4 0 16 7 25 10 14 32 18 112 20 54
2 109 4 121 4 14 1 20 -3 17 -11z m-314 -11 c0 -2 -30 -3 -67 -2 -62 1 -64 2
-23 7 43 6 90 3 90 -5z m850 1 c0 -8 -4 -15 -10 -15 -5 0 -10 7 -10 15 0 8 5
15 10 15 6 0 10 -7 10 -15z m-1170 -5 c0 -5 -4 -10 -10 -10 -5 0 -10 5 -10 10
0 6 5 10 10 10 6 0 10 -4 10 -10z m147 3 c-11 -10 -137 -16 -137 -6 0 5 32 10
72 11 39 1 68 -1 65 -5z m88 -151 c-20 -21 -34 100 -14 125 12 14 14 8 17 -52
2 -37 0 -70 -3 -73z m101 113 c3 -14 3 -42 -1 -63 l-8 -37 -14 33 c-8 20 -11
43 -6 55 4 12 6 25 5 30 -1 4 2 7 8 7 5 0 12 -11 16 -25z m-527 -12 c0 -16 -4
-37 -9 -48 -7 -17 -9 -15 -9 12 -1 17 -4 38 -7 47 -4 11 -1 16 10 16 11 0 16
-9 15 -27z m261 -20 c0 -33 -3 -44 -11 -36 -9 9 -3 83 7 83 2 0 4 -21 4 -47z
m97 -35 c-2 -18 -4 -6 -4 27 0 33 2 48 4 33 2 -15 2 -42 0 -60z m118 51 c7
-35 -5 -94 -16 -77 -10 15 -12 69 -3 93 8 20 13 15 19 -16z m-359 5 c-5 -12
-2 -15 11 -10 22 9 33 -10 33 -56 0 -51 -21 -53 -45 -4 -15 31 -18 47 -11 64
10 25 21 31 12 6z m66 -14 c-2 -16 -6 -30 -8 -30 -2 0 -4 14 -4 30 0 17 4 30
8 30 5 0 7 -13 4 -30z m-241 -83 c-8 -8 -11 -4 -12 14 0 21 -2 19 -14 -11
l-13 -35 -1 32 c-1 43 -19 51 -24 11 -2 -21 -4 -12 -5 24 l-2 57 38 3 37 3 3
-44 c2 -24 -2 -49 -7 -54z m139 41 c0 -20 -4 -39 -9 -42 -9 -6 -22 84 -14 98
9 15 23 -18 23 -56z m-260 -1 c0 -69 -14 -83 -50 -50 -16 14 -31 37 -35 51 -7
25 -8 26 -15 7 -8 -17 -9 -16 -9 8 -1 16 3 26 7 23 4 -2 14 -1 22 5 8 5 30 9
48 9 l32 0 0 -53z m229 -19 c2 -32 -18 -19 -25 16 -8 45 8 74 17 31 4 -16 7
-38 8 -47z m328 10 c-2 -13 -4 -3 -4 22 0 25 2 35 4 23 2 -13 2 -33 0 -45z
m-697 28 c0 -14 -4 -28 -10 -31 -6 -4 -10 7 -10 24 0 17 5 31 10 31 6 0 10
-11 10 -24z m638 -24 c2 -24 -1 -32 -12 -32 -12 0 -16 10 -16 36 0 45 24 42
28 -4z m1237 -362 c3 -5 -1 -10 -10 -10 -9 0 -13 5 -10 10 3 6 8 10 10 10 2 0
7 -4 10 -10z m-1220 -140 c3 -5 -1 -10 -9 -10 -9 0 -16 5 -16 10 0 6 4 10 9
10 6 0 13 -4 16 -10z m1535 -10 c0 -5 -4 -10 -10 -10 -5 0 -10 5 -10 10 0 6 5
10 10 10 6 0 10 -4 10 -10z m-1050 -50 c0 -5 -5 -10 -11 -10 -5 0 -7 5 -4 10
3 6 8 10 11 10 2 0 4 -4 4 -10z m1145 -210 c-5 -8 -11 -8 -17 -2 -6 6 -7 16
-3 22 5 8 11 8 17 2 6 -6 7 -16 3 -22z m-617 -52 c-6 -18 -28 -21 -28 -4 0 9
7 16 16 16 9 0 14 -5 12 -12z m-1448 -108 c0 -24 -26 -38 -42 -22 -16 16 -2
42 22 42 13 0 20 -7 20 -20z m895 -98 c0 -18 -20 -15 -23 4 -3 10 1 15 10 12
7 -3 13 -10 13 -16z"/>
<path d="M521 1324 c0 -11 3 -14 6 -6 3 7 2 16 -1 19 -3 4 -6 -2 -5 -13z"/>
<path d="M1738 1473 c7 -3 16 -2 19 1 4 3 -2 6 -13 5 -11 0 -14 -3 -6 -6z"/>
</g>
</svg>
